<svg width="240" height="360" viewBox="0 0 240 360" xmlns="http://www.w3.org/2000/svg" role="img">

    
  <defs>
    <linearGradient id="bg-59" x1="0" y1="0" x2="1" y2="1">
      <stop offset="0" stop-color="#172653"/>
      <stop offset=".54" stop-color="#171229"/>
      <stop offset="1" stop-color="#081b27"/>
    </linearGradient>
    <radialGradient id="halo-59" cx="50%" cy="35%" r="55%">
      <stop offset="0" stop-color="#8aa5ff" stop-opacity=".72"/>
      <stop offset=".58" stop-color="#8aa5ff" stop-opacity=".16"/>
      <stop offset="1" stop-color="#8aa5ff" stop-opacity="0"/>
    </radialGradient>
    <linearGradient id="rim-59" x1="0" y1="0" x2="1" y2="1">
      <stop offset="0" stop-color="#f2f6ff" stop-opacity=".96"/>
      <stop offset=".48" stop-color="#8aa5ff" stop-opacity=".72"/>
      <stop offset="1" stop-color="#d8f6ff" stop-opacity=".88"/>
    </linearGradient>
  </defs>
  <rect width="240" height="360" rx="22" fill="url(#bg-59)"/>
  <rect x="7" y="7" width="226" height="346" rx="18" fill="none" stroke="url(#rim-59)" stroke-width="3"/>
  <rect x="15" y="15" width="210" height="330" rx="14" fill="none" stroke="#fff" stroke-opacity=".1"/>
  <circle cx="120" cy="124" r="96" fill="url(#halo-59)"/>
  <circle cx="161" cy="323" r="1.40" fill="#fff" opacity="0.62"/>
<circle cx="214" cy="54" r="0.70" fill="#fff" opacity="0.22"/>
<circle cx="63" cy="85" r="1.05" fill="#fff" opacity="0.30"/>
<circle cx="116" cy="116" r="1.40" fill="#fff" opacity="0.38"/>
<circle cx="169" cy="147" r="0.70" fill="#fff" opacity="0.46"/>
<circle cx="18" cy="178" r="1.05" fill="#fff" opacity="0.54"/>
<circle cx="71" cy="209" r="1.40" fill="#fff" opacity="0.62"/>
<circle cx="124" cy="240" r="0.70" fill="#fff" opacity="0.22"/>
<circle cx="177" cy="271" r="1.05" fill="#fff" opacity="0.30"/>
<circle cx="26" cy="302" r="1.40" fill="#fff" opacity="0.38"/>
<circle cx="79" cy="33" r="0.70" fill="#fff" opacity="0.46"/>
<circle cx="132" cy="64" r="1.05" fill="#fff" opacity="0.54"/>
<circle cx="185" cy="95" r="1.40" fill="#fff" opacity="0.62"/>
<circle cx="34" cy="126" r="0.70" fill="#fff" opacity="0.22"/>
<circle cx="87" cy="157" r="1.05" fill="#fff" opacity="0.30"/>
<circle cx="140" cy="188" r="1.40" fill="#fff" opacity="0.38"/>
<circle cx="193" cy="219" r="0.70" fill="#fff" opacity="0.46"/>
<circle cx="42" cy="250" r="1.05" fill="#fff" opacity="0.54"/>
<circle cx="95" cy="281" r="1.40" fill="#fff" opacity="0.62"/>
<circle cx="148" cy="312" r="0.70" fill="#fff" opacity="0.22"/>
<circle cx="201" cy="43" r="1.05" fill="#fff" opacity="0.30"/>
<circle cx="50" cy="74" r="1.40" fill="#fff" opacity="0.38"/>
<circle cx="103" cy="105" r="0.70" fill="#fff" opacity="0.46"/>
<circle cx="156" cy="136" r="1.05" fill="#fff" opacity="0.54"/>
<circle cx="209" cy="167" r="1.40" fill="#fff" opacity="0.62"/>
<circle cx="58" cy="198" r="0.70" fill="#fff" opacity="0.22"/>
<circle cx="111" cy="229" r="1.05" fill="#fff" opacity="0.30"/>
<circle cx="164" cy="260" r="1.40" fill="#fff" opacity="0.38"/>
<circle cx="217" cy="291" r="0.70" fill="#fff" opacity="0.46"/>
<circle cx="66" cy="322" r="1.05" fill="#fff" opacity="0.54"/>
  <path d="M42 42 C70 24 170 24 198 42" fill="none" stroke="#f2f6ff" stroke-opacity=".3" stroke-width="2"/>
  <path d="M42 318 C70 336 170 336 198 318" fill="none" stroke="#f2f6ff" stroke-opacity=".3" stroke-width="2"/>
  <text x="120" y="35" text-anchor="middle" fill="#f2f6ff" opacity=".86" font-size="12" font-family="Arial, sans-serif" font-weight="700">10 · 宝剑</text>
    
    <path d="M26 252 C58 226 78 250 106 226 C132 204 154 236 184 218 C204 206 222 220 228 238 L228 332 L12 332 L12 274 C16 266 20 258 26 252 Z" fill="#8aa5ff" opacity="0.13"/>
    <path d="M20 286 C52 270 74 286 102 264 C132 242 160 280 192 258 C210 246 224 252 232 262 L232 332 L8 332 L8 304 C12 296 16 290 20 286 Z" fill="#ffffff" opacity=".08"/>
    <circle cx="120" cy="154" r="92" fill="#fff" opacity=".04"/>
    <g transform="translate(82 76) rotate(-8) scale(0.36)">
      <path d="M0 -36 L10 2 L0 36 L-10 2 Z" fill="#8aa5ff" opacity=".82" stroke="#f2f6ff" stroke-width="3"/>
      <path d="M-22 8 L22 8" stroke="#d8f6ff" stroke-width="5" stroke-linecap="round"/>
      <circle cx="0" cy="18" r="5" fill="#d8f6ff"/>
      <path d="M0 -24 L0 22" stroke="#fff" stroke-width="2" opacity=".45"/>
    </g>
<g transform="translate(158 76) rotate(8) scale(0.36)">
      <path d="M0 -36 L10 2 L0 36 L-10 2 Z" fill="#8aa5ff" opacity=".82" stroke="#f2f6ff" stroke-width="3"/>
      <path d="M-22 8 L22 8" stroke="#d8f6ff" stroke-width="5" stroke-linecap="round"/>
      <circle cx="0" cy="18" r="5" fill="#d8f6ff"/>
      <path d="M0 -24 L0 22" stroke="#fff" stroke-width="2" opacity=".45"/>
    </g>
<g transform="translate(82 116) rotate(-8) scale(0.36)">
      <path d="M0 -36 L10 2 L0 36 L-10 2 Z" fill="#8aa5ff" opacity=".82" stroke="#f2f6ff" stroke-width="3"/>
      <path d="M-22 8 L22 8" stroke="#d8f6ff" stroke-width="5" stroke-linecap="round"/>
      <circle cx="0" cy="18" r="5" fill="#d8f6ff"/>
      <path d="M0 -24 L0 22" stroke="#fff" stroke-width="2" opacity=".45"/>
    </g>
<g transform="translate(158 116) rotate(8) scale(0.36)">
      <path d="M0 -36 L10 2 L0 36 L-10 2 Z" fill="#8aa5ff" opacity=".82" stroke="#f2f6ff" stroke-width="3"/>
      <path d="M-22 8 L22 8" stroke="#d8f6ff" stroke-width="5" stroke-linecap="round"/>
      <circle cx="0" cy="18" r="5" fill="#d8f6ff"/>
      <path d="M0 -24 L0 22" stroke="#fff" stroke-width="2" opacity=".45"/>
    </g>
<g transform="translate(82 156) rotate(-8) scale(0.36)">
      <path d="M0 -36 L10 2 L0 36 L-10 2 Z" fill="#8aa5ff" opacity=".82" stroke="#f2f6ff" stroke-width="3"/>
      <path d="M-22 8 L22 8" stroke="#d8f6ff" stroke-width="5" stroke-linecap="round"/>
      <circle cx="0" cy="18" r="5" fill="#d8f6ff"/>
      <path d="M0 -24 L0 22" stroke="#fff" stroke-width="2" opacity=".45"/>
    </g>
<g transform="translate(158 156) rotate(8) scale(0.36)">
      <path d="M0 -36 L10 2 L0 36 L-10 2 Z" fill="#8aa5ff" opacity=".82" stroke="#f2f6ff" stroke-width="3"/>
      <path d="M-22 8 L22 8" stroke="#d8f6ff" stroke-width="5" stroke-linecap="round"/>
      <circle cx="0" cy="18" r="5" fill="#d8f6ff"/>
      <path d="M0 -24 L0 22" stroke="#fff" stroke-width="2" opacity=".45"/>
    </g>
<g transform="translate(82 196) rotate(-8) scale(0.36)">
      <path d="M0 -36 L10 2 L0 36 L-10 2 Z" fill="#8aa5ff" opacity=".82" stroke="#f2f6ff" stroke-width="3"/>
      <path d="M-22 8 L22 8" stroke="#d8f6ff" stroke-width="5" stroke-linecap="round"/>
      <circle cx="0" cy="18" r="5" fill="#d8f6ff"/>
      <path d="M0 -24 L0 22" stroke="#fff" stroke-width="2" opacity=".45"/>
    </g>
<g transform="translate(158 196) rotate(8) scale(0.36)">
      <path d="M0 -36 L10 2 L0 36 L-10 2 Z" fill="#8aa5ff" opacity=".82" stroke="#f2f6ff" stroke-width="3"/>
      <path d="M-22 8 L22 8" stroke="#d8f6ff" stroke-width="5" stroke-linecap="round"/>
      <circle cx="0" cy="18" r="5" fill="#d8f6ff"/>
      <path d="M0 -24 L0 22" stroke="#fff" stroke-width="2" opacity=".45"/>
    </g>
<g transform="translate(82 236) rotate(-8) scale(0.36)">
      <path d="M0 -36 L10 2 L0 36 L-10 2 Z" fill="#8aa5ff" opacity=".82" stroke="#f2f6ff" stroke-width="3"/>
      <path d="M-22 8 L22 8" stroke="#d8f6ff" stroke-width="5" stroke-linecap="round"/>
      <circle cx="0" cy="18" r="5" fill="#d8f6ff"/>
      <path d="M0 -24 L0 22" stroke="#fff" stroke-width="2" opacity=".45"/>
    </g>
<g transform="translate(158 236) rotate(8) scale(0.36)">
      <path d="M0 -36 L10 2 L0 36 L-10 2 Z" fill="#8aa5ff" opacity=".82" stroke="#f2f6ff" stroke-width="3"/>
      <path d="M-22 8 L22 8" stroke="#d8f6ff" stroke-width="5" stroke-linecap="round"/>
      <circle cx="0" cy="18" r="5" fill="#d8f6ff"/>
      <path d="M0 -24 L0 22" stroke="#fff" stroke-width="2" opacity=".45"/>
    </g>
    <path d="M54 246 C84 232 156 232 186 246" fill="none" stroke="#d8f6ff" stroke-opacity=".54" stroke-width="2" stroke-linecap="round"/>
    <text x="120" y="258" text-anchor="middle" fill="#f2f6ff" opacity=".68" font-size="11" font-family="Arial, sans-serif">结束 · 失败 · 背叛</text>
    
  <g>
    <rect x="34" y="270" width="172" height="48" rx="16" fill="#050612" opacity=".28"/>
    <text x="120" y="290" text-anchor="middle" fill="#f2f6ff" font-size="24" font-weight="800" font-family="Arial, 'PingFang SC', sans-serif">宝剑十</text>
    <text x="120" y="308" text-anchor="middle" fill="#d8f6ff" font-size="10" font-weight="700" font-family="Arial, sans-serif" opacity=".92">Ten of Swords</text>
    <text x="120" y="332" text-anchor="middle" fill="#8aa5ff" font-size="11" font-family="Arial, sans-serif" opacity=".78">宝剑</text>
  </g>
  
</svg>
