<svg width="240" height="360" viewBox="0 0 240 360" xmlns="http://www.w3.org/2000/svg" role="img">

    
  <defs>
    <linearGradient id="bg-999" x1="0" y1="0" x2="1" y2="1">
      <stop offset="0" stop-color="#33205f"/>
      <stop offset=".54" stop-color="#171229"/>
      <stop offset="1" stop-color="#081b27"/>
    </linearGradient>
    <radialGradient id="halo-999" cx="50%" cy="35%" r="55%">
      <stop offset="0" stop-color="#8d63ff" stop-opacity=".72"/>
      <stop offset=".58" stop-color="#8d63ff" stop-opacity=".16"/>
      <stop offset="1" stop-color="#8d63ff" stop-opacity="0"/>
    </radialGradient>
    <linearGradient id="rim-999" x1="0" y1="0" x2="1" y2="1">
      <stop offset="0" stop-color="#f7efff" stop-opacity=".96"/>
      <stop offset=".48" stop-color="#8d63ff" stop-opacity=".72"/>
      <stop offset="1" stop-color="#ffd9a8" stop-opacity=".88"/>
    </linearGradient>
  </defs>
  <rect width="240" height="360" rx="22" fill="url(#bg-999)"/>
  <rect x="7" y="7" width="226" height="346" rx="18" fill="none" stroke="url(#rim-999)" stroke-width="3"/>
  <rect x="15" y="15" width="210" height="330" rx="14" fill="none" stroke="#fff" stroke-opacity=".1"/>
  <circle cx="120" cy="124" r="96" fill="url(#halo-999)"/>
  <circle cx="57" cy="63" r="0.70" fill="#fff" opacity="0.46"/>
<circle cx="110" cy="94" r="1.05" fill="#fff" opacity="0.54"/>
<circle cx="163" cy="125" r="1.40" fill="#fff" opacity="0.62"/>
<circle cx="216" cy="156" r="0.70" fill="#fff" opacity="0.22"/>
<circle cx="65" cy="187" r="1.05" fill="#fff" opacity="0.30"/>
<circle cx="118" cy="218" r="1.40" fill="#fff" opacity="0.38"/>
<circle cx="171" cy="249" r="0.70" fill="#fff" opacity="0.46"/>
<circle cx="20" cy="280" r="1.05" fill="#fff" opacity="0.54"/>
<circle cx="73" cy="311" r="1.40" fill="#fff" opacity="0.62"/>
<circle cx="126" cy="42" r="0.70" fill="#fff" opacity="0.22"/>
<circle cx="179" cy="73" r="1.05" fill="#fff" opacity="0.30"/>
<circle cx="28" cy="104" r="1.40" fill="#fff" opacity="0.38"/>
<circle cx="81" cy="135" r="0.70" fill="#fff" opacity="0.46"/>
<circle cx="134" cy="166" r="1.05" fill="#fff" opacity="0.54"/>
<circle cx="187" cy="197" r="1.40" fill="#fff" opacity="0.62"/>
<circle cx="36" cy="228" r="0.70" fill="#fff" opacity="0.22"/>
<circle cx="89" cy="259" r="1.05" fill="#fff" opacity="0.30"/>
<circle cx="142" cy="290" r="1.40" fill="#fff" opacity="0.38"/>
<circle cx="195" cy="321" r="0.70" fill="#fff" opacity="0.46"/>
<circle cx="44" cy="52" r="1.05" fill="#fff" opacity="0.54"/>
<circle cx="97" cy="83" r="1.40" fill="#fff" opacity="0.62"/>
<circle cx="150" cy="114" r="0.70" fill="#fff" opacity="0.22"/>
<circle cx="203" cy="145" r="1.05" fill="#fff" opacity="0.30"/>
<circle cx="52" cy="176" r="1.40" fill="#fff" opacity="0.38"/>
<circle cx="105" cy="207" r="0.70" fill="#fff" opacity="0.46"/>
<circle cx="158" cy="238" r="1.05" fill="#fff" opacity="0.54"/>
<circle cx="211" cy="269" r="1.40" fill="#fff" opacity="0.62"/>
<circle cx="60" cy="300" r="0.70" fill="#fff" opacity="0.22"/>
<circle cx="113" cy="31" r="1.05" fill="#fff" opacity="0.30"/>
<circle cx="166" cy="62" r="1.40" fill="#fff" opacity="0.38"/>
  <path d="M42 42 C70 24 170 24 198 42" fill="none" stroke="#f7efff" stroke-opacity=".3" stroke-width="2"/>
  <path d="M42 318 C70 336 170 336 198 318" fill="none" stroke="#f7efff" stroke-opacity=".3" stroke-width="2"/>
  <text x="120" y="35" text-anchor="middle" fill="#f7efff" opacity=".86" font-size="12" font-family="Arial, sans-serif" font-weight="700">TAROT DREAM</text>
    <circle cx="120" cy="142" r="72" fill="#8d63ff" opacity=".2"/>
    <circle cx="120" cy="142" r="48" fill="none" stroke="#f7efff" stroke-opacity=".5" stroke-width="2"/>
    <path d="M120 66 L136 122 L194 142 L136 162 L120 218 L104 162 L46 142 L104 122 Z" fill="#f7efff" opacity=".88"/>
    <circle cx="120" cy="142" r="13" fill="#ffd9a8" opacity=".92"/>
    <path d="M70 250 C96 232 144 232 170 250" fill="none" stroke="#ffd9a8" stroke-opacity=".58" stroke-width="2" stroke-linecap="round"/>
    <text x="120" y="280" text-anchor="middle" fill="#f7efff" font-size="17" font-weight="800" font-family="Arial, sans-serif">TAROT</text>
    <text x="120" y="302" text-anchor="middle" fill="#ffd9a8" font-size="10" font-weight="700" font-family="Arial, sans-serif">DREAM ORACLE</text>
  
</svg>
