<svg width="240" height="360" viewBox="0 0 240 360" xmlns="http://www.w3.org/2000/svg" role="img">

    
  <defs>
    <linearGradient id="bg-17" x1="0" y1="0" x2="1" y2="1">
      <stop offset="0" stop-color="#33205f"/>
      <stop offset=".54" stop-color="#171229"/>
      <stop offset="1" stop-color="#081b27"/>
    </linearGradient>
    <radialGradient id="halo-17" cx="50%" cy="35%" r="55%">
      <stop offset="0" stop-color="#8d63ff" stop-opacity=".72"/>
      <stop offset=".58" stop-color="#8d63ff" stop-opacity=".16"/>
      <stop offset="1" stop-color="#8d63ff" stop-opacity="0"/>
    </radialGradient>
    <linearGradient id="rim-17" x1="0" y1="0" x2="1" y2="1">
      <stop offset="0" stop-color="#f7efff" stop-opacity=".96"/>
      <stop offset=".48" stop-color="#8d63ff" stop-opacity=".72"/>
      <stop offset="1" stop-color="#ffd9a8" stop-opacity=".88"/>
    </linearGradient>
  </defs>
  <rect width="240" height="360" rx="22" fill="url(#bg-17)"/>
  <rect x="7" y="7" width="226" height="346" rx="18" fill="none" stroke="url(#rim-17)" stroke-width="3"/>
  <rect x="15" y="15" width="210" height="330" rx="14" fill="none" stroke="#fff" stroke-opacity=".1"/>
  <circle cx="120" cy="124" r="96" fill="url(#halo-17)"/>
  <circle cx="35" cy="161" r="1.40" fill="#fff" opacity="0.62"/>
<circle cx="88" cy="192" r="0.70" fill="#fff" opacity="0.22"/>
<circle cx="141" cy="223" r="1.05" fill="#fff" opacity="0.30"/>
<circle cx="194" cy="254" r="1.40" fill="#fff" opacity="0.38"/>
<circle cx="43" cy="285" r="0.70" fill="#fff" opacity="0.46"/>
<circle cx="96" cy="316" r="1.05" fill="#fff" opacity="0.54"/>
<circle cx="149" cy="47" r="1.40" fill="#fff" opacity="0.62"/>
<circle cx="202" cy="78" r="0.70" fill="#fff" opacity="0.22"/>
<circle cx="51" cy="109" r="1.05" fill="#fff" opacity="0.30"/>
<circle cx="104" cy="140" r="1.40" fill="#fff" opacity="0.38"/>
<circle cx="157" cy="171" r="0.70" fill="#fff" opacity="0.46"/>
<circle cx="210" cy="202" r="1.05" fill="#fff" opacity="0.54"/>
<circle cx="59" cy="233" r="1.40" fill="#fff" opacity="0.62"/>
<circle cx="112" cy="264" r="0.70" fill="#fff" opacity="0.22"/>
<circle cx="165" cy="295" r="1.05" fill="#fff" opacity="0.30"/>
<circle cx="218" cy="26" r="1.40" fill="#fff" opacity="0.38"/>
<circle cx="67" cy="57" r="0.70" fill="#fff" opacity="0.46"/>
<circle cx="120" cy="88" r="1.05" fill="#fff" opacity="0.54"/>
<circle cx="173" cy="119" r="1.40" fill="#fff" opacity="0.62"/>
<circle cx="22" cy="150" r="0.70" fill="#fff" opacity="0.22"/>
<circle cx="75" cy="181" r="1.05" fill="#fff" opacity="0.30"/>
<circle cx="128" cy="212" r="1.40" fill="#fff" opacity="0.38"/>
<circle cx="181" cy="243" r="0.70" fill="#fff" opacity="0.46"/>
<circle cx="30" cy="274" r="1.05" fill="#fff" opacity="0.54"/>
<circle cx="83" cy="305" r="1.40" fill="#fff" opacity="0.62"/>
<circle cx="136" cy="36" r="0.70" fill="#fff" opacity="0.22"/>
<circle cx="189" cy="67" r="1.05" fill="#fff" opacity="0.30"/>
<circle cx="38" cy="98" r="1.40" fill="#fff" opacity="0.38"/>
<circle cx="91" cy="129" r="0.70" fill="#fff" opacity="0.46"/>
<circle cx="144" cy="160" r="1.05" fill="#fff" opacity="0.54"/>
  <path d="M42 42 C70 24 170 24 198 42" fill="none" stroke="#f7efff" stroke-opacity=".3" stroke-width="2"/>
  <path d="M42 318 C70 336 170 336 198 318" fill="none" stroke="#f7efff" stroke-opacity=".3" stroke-width="2"/>
  <text x="120" y="35" text-anchor="middle" fill="#f7efff" opacity=".86" font-size="12" font-family="Arial, sans-serif" font-weight="700">XVII</text>
    
    <path d="M26 252 C58 226 78 250 106 226 C132 204 154 236 184 218 C204 206 222 220 228 238 L228 332 L12 332 L12 274 C16 266 20 258 26 252 Z" fill="#8d63ff" opacity="0.16"/>
    <path d="M20 286 C52 270 74 286 102 264 C132 242 160 280 192 258 C210 246 224 252 232 262 L232 332 L8 332 L8 304 C12 296 16 290 20 286 Z" fill="#ffffff" opacity=".08"/>
    <path d="M58 218 C92 166 148 166 182 218" fill="none" stroke="#ffd9a8" stroke-width="5" stroke-linecap="round" stroke-linejoin="round" opacity=".74"/>
    <circle cx="120" cy="132" r="47" fill="#8d63ff" opacity=".16"/>
    <circle cx="120" cy="132" r="36" fill="#fff" opacity=".08"/>
    <text x="120" y="141" text-anchor="middle" fill="#f7efff" font-size="54" font-weight="800" font-family="Arial, sans-serif">★</text>
    <path d="M75 238 C98 226 142 226 165 238" fill="none" stroke="#f7efff" stroke-opacity=".42" stroke-width="2" stroke-linecap="round"/>
    <text x="120" y="252" text-anchor="middle" fill="#ffd9a8" opacity=".88" font-size="12" font-family="Arial, sans-serif">许愿星池</text>
    
  <g>
    <rect x="34" y="270" width="172" height="48" rx="16" fill="#050612" opacity=".28"/>
    <text x="120" y="290" text-anchor="middle" fill="#f7efff" font-size="24" font-weight="800" font-family="Arial, 'PingFang SC', sans-serif">星星</text>
    <text x="120" y="308" text-anchor="middle" fill="#ffd9a8" font-size="10" font-weight="700" font-family="Arial, sans-serif" opacity=".92">The Star</text>
    <text x="120" y="332" text-anchor="middle" fill="#8d63ff" font-size="11" font-family="Arial, sans-serif" opacity=".78">Major Arcana</text>
  </g>
  
</svg>
