<svg width="240" height="360" viewBox="0 0 240 360" xmlns="http://www.w3.org/2000/svg" role="img">

    
  <defs>
    <linearGradient id="bg-33" x1="0" y1="0" x2="1" y2="1">
      <stop offset="0" stop-color="#4e193d"/>
      <stop offset=".54" stop-color="#171229"/>
      <stop offset="1" stop-color="#081b27"/>
    </linearGradient>
    <radialGradient id="halo-33" cx="50%" cy="35%" r="55%">
      <stop offset="0" stop-color="#ff8a5c" stop-opacity=".72"/>
      <stop offset=".58" stop-color="#ff8a5c" stop-opacity=".16"/>
      <stop offset="1" stop-color="#ff8a5c" stop-opacity="0"/>
    </radialGradient>
    <linearGradient id="rim-33" x1="0" y1="0" x2="1" y2="1">
      <stop offset="0" stop-color="#fff4df" stop-opacity=".96"/>
      <stop offset=".48" stop-color="#ff8a5c" stop-opacity=".72"/>
      <stop offset="1" stop-color="#ffe081" stop-opacity=".88"/>
    </linearGradient>
  </defs>
  <rect width="240" height="360" rx="22" fill="url(#bg-33)"/>
  <rect x="7" y="7" width="226" height="346" rx="18" fill="none" stroke="url(#rim-33)" stroke-width="3"/>
  <rect x="15" y="15" width="210" height="330" rx="14" fill="none" stroke="#fff" stroke-opacity=".1"/>
  <circle cx="120" cy="124" r="96" fill="url(#halo-33)"/>
  <circle cx="219" cy="237" r="0.70" fill="#fff" opacity="0.46"/>
<circle cx="68" cy="268" r="1.05" fill="#fff" opacity="0.54"/>
<circle cx="121" cy="299" r="1.40" fill="#fff" opacity="0.62"/>
<circle cx="174" cy="30" r="0.70" fill="#fff" opacity="0.22"/>
<circle cx="23" cy="61" r="1.05" fill="#fff" opacity="0.30"/>
<circle cx="76" cy="92" r="1.40" fill="#fff" opacity="0.38"/>
<circle cx="129" cy="123" r="0.70" fill="#fff" opacity="0.46"/>
<circle cx="182" cy="154" r="1.05" fill="#fff" opacity="0.54"/>
<circle cx="31" cy="185" r="1.40" fill="#fff" opacity="0.62"/>
<circle cx="84" cy="216" r="0.70" fill="#fff" opacity="0.22"/>
<circle cx="137" cy="247" r="1.05" fill="#fff" opacity="0.30"/>
<circle cx="190" cy="278" r="1.40" fill="#fff" opacity="0.38"/>
<circle cx="39" cy="309" r="0.70" fill="#fff" opacity="0.46"/>
<circle cx="92" cy="40" r="1.05" fill="#fff" opacity="0.54"/>
<circle cx="145" cy="71" r="1.40" fill="#fff" opacity="0.62"/>
<circle cx="198" cy="102" r="0.70" fill="#fff" opacity="0.22"/>
<circle cx="47" cy="133" r="1.05" fill="#fff" opacity="0.30"/>
<circle cx="100" cy="164" r="1.40" fill="#fff" opacity="0.38"/>
<circle cx="153" cy="195" r="0.70" fill="#fff" opacity="0.46"/>
<circle cx="206" cy="226" r="1.05" fill="#fff" opacity="0.54"/>
<circle cx="55" cy="257" r="1.40" fill="#fff" opacity="0.62"/>
<circle cx="108" cy="288" r="0.70" fill="#fff" opacity="0.22"/>
<circle cx="161" cy="319" r="1.05" fill="#fff" opacity="0.30"/>
<circle cx="214" cy="50" r="1.40" fill="#fff" opacity="0.38"/>
<circle cx="63" cy="81" r="0.70" fill="#fff" opacity="0.46"/>
<circle cx="116" cy="112" r="1.05" fill="#fff" opacity="0.54"/>
<circle cx="169" cy="143" r="1.40" fill="#fff" opacity="0.62"/>
<circle cx="18" cy="174" r="0.70" fill="#fff" opacity="0.22"/>
<circle cx="71" cy="205" r="1.05" fill="#fff" opacity="0.30"/>
<circle cx="124" cy="236" r="1.40" fill="#fff" opacity="0.38"/>
  <path d="M42 42 C70 24 170 24 198 42" fill="none" stroke="#fff4df" stroke-opacity=".3" stroke-width="2"/>
  <path d="M42 318 C70 336 170 336 198 318" fill="none" stroke="#fff4df" stroke-opacity=".3" stroke-width="2"/>
  <text x="120" y="35" text-anchor="middle" fill="#fff4df" opacity=".86" font-size="12" font-family="Arial, sans-serif" font-weight="700">N · 权杖</text>
    
    <path d="M26 252 C58 226 78 250 106 226 C132 204 154 236 184 218 C204 206 222 220 228 238 L228 332 L12 332 L12 274 C16 266 20 258 26 252 Z" fill="#ff8a5c" opacity="0.13"/>
    <path d="M20 286 C52 270 74 286 102 264 C132 242 160 280 192 258 C210 246 224 252 232 262 L232 332 L8 332 L8 304 C12 296 16 290 20 286 Z" fill="#ffffff" opacity=".08"/>
    <circle cx="120" cy="154" r="92" fill="#fff" opacity=".04"/>
    
    <g>
      <ellipse cx="120" cy="212" rx="82" ry="34" fill="#ff8a5c" opacity=".18"/>
      <path d="M72 222 C80 150 160 150 168 222 Z" fill="#ff8a5c" opacity=".32" stroke="#fff4df" stroke-opacity=".5" stroke-width="3"/>
      <circle cx="120" cy="132" r="42" fill="#ffe081" opacity=".82"/>
      
    <circle cx="110" cy="128" r="2.5" fill="#2a2044" opacity=".86"/>
    <circle cx="130" cy="128" r="2.5" fill="#2a2044" opacity=".86"/>
    <path d="M113 138 Q120 144 127 138" fill="none" stroke="#2a2044" stroke-width="2" stroke-linecap="round" opacity=".8"/>
      <text x="120" y="91" text-anchor="middle" fill="#fff4df" font-size="40" font-family="Arial, sans-serif">♞</text>
      <g transform="translate(120 196) rotate(0) scale(0.55)">
      <path d="M0 -34 C8 -16 8 18 0 34 C-8 18 -8 -16 0 -34 Z" fill="#ffe081" opacity=".78"/>
      <path d="M0 -30 L0 30" stroke="#fff4df" stroke-width="5" stroke-linecap="round"/>
      <path d="M0 -16 C18 -24 28 -10 18 2 C8 -4 2 -8 0 -16 Z" fill="#ff8a5c" opacity=".72"/>
      <path d="M0 8 C-18 0 -28 14 -18 26 C-8 20 -2 16 0 8 Z" fill="#ff8a5c" opacity=".58"/>
    </g>
    </g>
    <path d="M62 242 C92 258 148 258 178 242" fill="none" stroke="#ffe081" stroke-opacity=".54" stroke-width="2" stroke-linecap="round"/>
    <text x="120" y="258" text-anchor="middle" fill="#fff4df" opacity=".68" font-size="11" font-family="Arial, sans-serif">冒险 · 冲动 · 魅力</text>
    
  <g>
    <rect x="34" y="270" width="172" height="48" rx="16" fill="#050612" opacity=".28"/>
    <text x="120" y="290" text-anchor="middle" fill="#fff4df" font-size="24" font-weight="800" font-family="Arial, 'PingFang SC', sans-serif">权杖骑士</text>
    <text x="120" y="308" text-anchor="middle" fill="#ffe081" font-size="10" font-weight="700" font-family="Arial, sans-serif" opacity=".92">Knight of Wands</text>
    <text x="120" y="332" text-anchor="middle" fill="#ff8a5c" font-size="11" font-family="Arial, sans-serif" opacity=".78">权杖</text>
  </g>
  
</svg>
